<svg width="58" height="38" viewBox="0 0 58 38" fill="none" xmlns="http://www.w3.org/2000/svg">
<g opacity="0.38">
<rect x="12" y="12" width="34" height="14" rx="7" fill="#D2D2D2"/>
</g>
<g filter="url(#filter0_ddd_15_2949)">
<circle cx="39" cy="19" r="10" fill="#D2D2D2"/>
</g>
<path d="M39 12.25C35.2725 12.25 32.25 15.2725 32.25 19C32.25 22.7275 35.2725 25.75 39 25.75C42.7275 25.75 45.75 22.7275 45.75 19C45.75 18.655 45.72 18.31 45.675 17.98C44.94 19.0075 43.74 19.675 42.375 19.675C40.14 19.675 38.325 17.86 38.325 15.625C38.325 14.2675 38.9925 13.06 40.02 12.325C39.69 12.28 39.345 12.25 39 12.25Z" fill="#171717"/>
<defs>
<filter id="filter0_ddd_15_2949" x="26" y="7" width="26" height="26" filterUnits="userSpaceOnUse" color-interpolation-filters="sRGB">
<feFlood flood-opacity="0" result="BackgroundImageFix"/>
<feColorMatrix in="SourceAlpha" type="matrix" values="0 0 0 0 0 0 0 0 0 0 0 0 0 0 0 0 0 0 127 0" result="hardAlpha"/>
<feOffset dy="1"/>
<feGaussianBlur stdDeviation="1.5"/>
<feComposite in2="hardAlpha" operator="out"/>
<feColorMatrix type="matrix" values="0 0 0 0 0 0 0 0 0 0 0 0 0 0 0 0 0 0 0.12 0"/>
<feBlend mode="normal" in2="BackgroundImageFix" result="effect1_dropShadow_15_2949"/>
<feColorMatrix in="SourceAlpha" type="matrix" values="0 0 0 0 0 0 0 0 0 0 0 0 0 0 0 0 0 0 127 0" result="hardAlpha"/>
<feOffset dy="1"/>
<feGaussianBlur stdDeviation="0.5"/>
<feComposite in2="hardAlpha" operator="out"/>
<feColorMatrix type="matrix" values="0 0 0 0 0 0 0 0 0 0 0 0 0 0 0 0 0 0 0.14 0"/>
<feBlend mode="normal" in2="effect1_dropShadow_15_2949" result="effect2_dropShadow_15_2949"/>
<feColorMatrix in="SourceAlpha" type="matrix" values="0 0 0 0 0 0 0 0 0 0 0 0 0 0 0 0 0 0 127 0" result="hardAlpha"/>
<feMorphology radius="1" operator="erode" in="SourceAlpha" result="effect3_dropShadow_15_2949"/>
<feOffset dy="2"/>
<feGaussianBlur stdDeviation="0.5"/>
<feComposite in2="hardAlpha" operator="out"/>
<feColorMatrix type="matrix" values="0 0 0 0 0 0 0 0 0 0 0 0 0 0 0 0 0 0 0.2 0"/>
<feBlend mode="normal" in2="effect2_dropShadow_15_2949" result="effect3_dropShadow_15_2949"/>
<feBlend mode="normal" in="SourceGraphic" in2="effect3_dropShadow_15_2949" result="shape"/>
</filter>
</defs>
</svg>
