<svg width="58" height="38" viewBox="0 0 58 38" fill="none" xmlns="http://www.w3.org/2000/svg">
<g opacity="0.38">
<rect x="12" y="12" width="34" height="14" rx="7" fill="black"/>
</g>
<g filter="url(#filter0_ddd_15_2946)">
<circle cx="19" cy="19" r="10" fill="#FAFAFA"/>
</g>
<g clip-path="url(#clip0_15_2946)">
<path d="M19 15.25C16.93 15.25 15.25 16.93 15.25 19C15.25 21.07 16.93 22.75 19 22.75C21.07 22.75 22.75 21.07 22.75 19C22.75 16.93 21.07 15.25 19 15.25ZM11.5 19.75H13C13.4125 19.75 13.75 19.4125 13.75 19C13.75 18.5875 13.4125 18.25 13 18.25H11.5C11.0875 18.25 10.75 18.5875 10.75 19C10.75 19.4125 11.0875 19.75 11.5 19.75ZM25 19.75H26.5C26.9125 19.75 27.25 19.4125 27.25 19C27.25 18.5875 26.9125 18.25 26.5 18.25H25C24.5875 18.25 24.25 18.5875 24.25 19C24.25 19.4125 24.5875 19.75 25 19.75ZM18.25 11.5V13C18.25 13.4125 18.5875 13.75 19 13.75C19.4125 13.75 19.75 13.4125 19.75 13V11.5C19.75 11.0875 19.4125 10.75 19 10.75C18.5875 10.75 18.25 11.0875 18.25 11.5ZM18.25 25V26.5C18.25 26.9125 18.5875 27.25 19 27.25C19.4125 27.25 19.75 26.9125 19.75 26.5V25C19.75 24.5875 19.4125 24.25 19 24.25C18.5875 24.25 18.25 24.5875 18.25 25ZM14.4925 13.435C14.2 13.1425 13.72 13.1425 13.435 13.435C13.1425 13.7275 13.1425 14.2075 13.435 14.4925L14.23 15.2875C14.5225 15.58 15.0025 15.58 15.2875 15.2875C15.5725 14.995 15.58 14.515 15.2875 14.23L14.4925 13.435ZM23.77 22.7125C23.4775 22.42 22.9975 22.42 22.7125 22.7125C22.42 23.005 22.42 23.485 22.7125 23.77L23.5075 24.565C23.8 24.8575 24.28 24.8575 24.565 24.565C24.8575 24.2725 24.8575 23.7925 24.565 23.5075L23.77 22.7125ZM24.565 14.4925C24.8575 14.2 24.8575 13.72 24.565 13.435C24.2725 13.1425 23.7925 13.1425 23.5075 13.435L22.7125 14.23C22.42 14.5225 22.42 15.0025 22.7125 15.2875C23.005 15.5725 23.485 15.58 23.77 15.2875L24.565 14.4925ZM15.2875 23.77C15.58 23.4775 15.58 22.9975 15.2875 22.7125C14.995 22.42 14.515 22.42 14.23 22.7125L13.435 23.5075C13.1425 23.8 13.1425 24.28 13.435 24.565C13.7275 24.85 14.2075 24.8575 14.4925 24.565L15.2875 23.77Z" fill="black" fill-opacity="0.54"/>
</g>
<defs>
<filter id="filter0_ddd_15_2946" x="6" y="7" width="26" height="26" filterUnits="userSpaceOnUse" color-interpolation-filters="sRGB">
<feFlood flood-opacity="0" result="BackgroundImageFix"/>
<feColorMatrix in="SourceAlpha" type="matrix" values="0 0 0 0 0 0 0 0 0 0 0 0 0 0 0 0 0 0 127 0" result="hardAlpha"/>
<feOffset dy="1"/>
<feGaussianBlur stdDeviation="1.5"/>
<feComposite in2="hardAlpha" operator="out"/>
<feColorMatrix type="matrix" values="0 0 0 0 0 0 0 0 0 0 0 0 0 0 0 0 0 0 0.12 0"/>
<feBlend mode="normal" in2="BackgroundImageFix" result="effect1_dropShadow_15_2946"/>
<feColorMatrix in="SourceAlpha" type="matrix" values="0 0 0 0 0 0 0 0 0 0 0 0 0 0 0 0 0 0 127 0" result="hardAlpha"/>
<feOffset dy="1"/>
<feGaussianBlur stdDeviation="0.5"/>
<feComposite in2="hardAlpha" operator="out"/>
<feColorMatrix type="matrix" values="0 0 0 0 0 0 0 0 0 0 0 0 0 0 0 0 0 0 0.14 0"/>
<feBlend mode="normal" in2="effect1_dropShadow_15_2946" result="effect2_dropShadow_15_2946"/>
<feColorMatrix in="SourceAlpha" type="matrix" values="0 0 0 0 0 0 0 0 0 0 0 0 0 0 0 0 0 0 127 0" result="hardAlpha"/>
<feMorphology radius="1" operator="erode" in="SourceAlpha" result="effect3_dropShadow_15_2946"/>
<feOffset dy="2"/>
<feGaussianBlur stdDeviation="0.5"/>
<feComposite in2="hardAlpha" operator="out"/>
<feColorMatrix type="matrix" values="0 0 0 0 0 0 0 0 0 0 0 0 0 0 0 0 0 0 0.2 0"/>
<feBlend mode="normal" in2="effect2_dropShadow_15_2946" result="effect3_dropShadow_15_2946"/>
<feBlend mode="normal" in="SourceGraphic" in2="effect3_dropShadow_15_2946" result="shape"/>
</filter>
<clipPath id="clip0_15_2946">
<rect width="18" height="18" fill="white" transform="translate(10 10)"/>
</clipPath>
</defs>
</svg>
